<?xml version="1.0" encoding="UTF-8"?>
<!DOCTYPE svg PUBLIC "-//W3C//DTD SVG 1.1//EN" "http://www.w3.org/Graphics/SVG/1.1/DTD/svg11.dtd">
<!-- Creator: CorelDRAW 2018 (64-Bit) -->
<svg xmlns="http://www.w3.org/2000/svg" xml:space="preserve" width="105.484mm" height="62.6762mm" version="1.1" style="shape-rendering:geometricPrecision; text-rendering:geometricPrecision; image-rendering:optimizeQuality; fill-rule:evenodd; clip-rule:evenodd"
viewBox="0 0 4380.95 2603.06"
 xmlns:xlink="http://www.w3.org/1999/xlink">
 <defs>
  <style type="text/css">
   <![CDATA[
    .fil1 {fill:#28B097}
    .fil0 {fill:#FDFBF5;fill-rule:nonzero}
   ]]>
  </style>
 </defs>
 <g id="Layer_x0020_1">
  <metadata id="CorelCorpID_0Corel-Layer"/>
  <g id="_2448393532272">
   <path class="fil0" d="M354.39 1850.64c51.13,0 96.97,7.5 137.52,22.48 40.55,14.98 77.58,37.47 111.07,67.44l-99.17 137.52c-40.55,-32.61 -83.31,-48.92 -128.27,-48.92 -43.2,0 -75.82,15.65 -97.86,46.94 -22.04,31.29 -33.06,83.08 -33.06,155.37 0,70.53 11.02,119.67 33.06,147.44 22.04,27.77 53.78,41.65 95.21,41.65 22.04,0 42.31,-3.52 60.83,-10.58 18.51,-7.05 40.99,-18.95 67.44,-35.7l101.82 144.14c-67.88,56.42 -148.54,84.63 -241.99,84.63 -74.05,0 -138.18,-15.43 -192.4,-46.28 -54.22,-30.85 -95.87,-74.27 -124.97,-130.25 -29.09,-55.98 -43.63,-120.55 -43.63,-193.73 0,-74.05 14.54,-139.95 43.63,-197.69 29.09,-57.74 70.31,-102.92 123.64,-135.54 53.34,-32.61 115.71,-48.93 187.12,-48.93zm885.97 511.75c0,25.57 3.31,44.52 9.92,56.86 6.61,12.34 18.29,21.6 35.04,27.77l-47.61 152.07c-44.96,-3.53 -81.76,-12.78 -110.42,-27.77 -28.65,-14.99 -51.79,-38.79 -69.42,-71.41 -44.96,68.76 -115.93,103.14 -212.9,103.14 -69.64,0 -125.4,-20.5 -167.28,-61.49 -41.88,-40.99 -62.81,-94.11 -62.81,-159.34 0,-77.58 28.65,-137.08 85.95,-178.52 57.3,-41.43 140.17,-62.15 248.6,-62.15l60.83 0 0 -23.8c0,-37.91 -7.93,-63.69 -23.8,-77.36 -15.87,-13.67 -44.52,-20.5 -85.95,-20.5 -22.04,0 -49.59,3.31 -82.64,9.92 -33.06,6.61 -66.78,15.65 -101.16,27.11l-51.57 -152.07c42.32,-17.63 87.72,-31.07 136.2,-40.33 48.48,-9.26 93.45,-13.88 134.88,-13.88 105.79,0 182.93,20.94 231.41,62.81 48.48,41.87 72.73,106.01 72.73,192.4l0 256.54zm-323.97 75.37c19.39,0 37.24,-5.07 53.55,-15.2 16.31,-10.14 29.75,-24.02 40.33,-41.65l0 -113.73 -39.67 0c-42.32,0 -73.61,7.72 -93.89,23.14 -20.28,15.43 -30.41,38.57 -30.41,69.42 0,23.8 6.18,42.76 18.51,56.86 12.34,14.1 29.53,21.16 51.57,21.16zm871.43 -584.48c22.92,0 46.72,3.97 71.41,11.9l-38.35 227.44c-22.92,-7.06 -44.08,-10.58 -63.47,-10.58 -39.67,0 -69.86,13.44 -90.58,40.33 -20.72,26.89 -36.81,67.66 -48.27,122.32l0 334.56 -235.38 0 0 -704.81 204.96 0 21.16 133.55c14.1,-46.72 37.69,-84.19 70.75,-112.4 33.06,-28.21 68.98,-42.31 107.77,-42.31zm929.61 -2.65c54.66,0 98.73,18.73 132.24,56.2 33.5,37.47 50.25,89.26 50.25,155.37l0 517.04 -235.38 0 0 -474.73c0,-54.66 -15.87,-81.99 -47.6,-81.99 -32.62,0 -62.59,26.89 -89.92,80.66l0 476.05 -235.38 0 0 -474.73c0,-54.66 -15.87,-81.99 -47.6,-81.99 -32.62,0 -62.59,26.89 -89.92,80.66l0 476.05 -235.38 0 0 -704.81 204.96 0 17.19 78.02c27.33,-34.38 57.52,-59.95 90.58,-76.7 33.06,-16.75 71.19,-25.13 114.38,-25.13 37.03,0 69.64,9.04 97.85,27.11 28.21,18.07 49.37,44.29 63.47,78.68 29.09,-36.15 60.39,-62.81 93.89,-80 33.5,-17.19 72.29,-25.79 116.37,-25.79zm897.88 511.75c0,25.57 3.31,44.52 9.92,56.86 6.61,12.34 18.29,21.6 35.04,27.77l-47.61 152.07c-44.96,-3.53 -81.76,-12.78 -110.42,-27.77 -28.65,-14.99 -51.79,-38.79 -69.42,-71.41 -44.96,68.76 -115.93,103.14 -212.9,103.14 -69.64,0 -125.4,-20.5 -167.27,-61.49 -41.88,-40.99 -62.82,-94.11 -62.82,-159.34 0,-77.58 28.65,-137.08 85.95,-178.52 57.3,-41.43 140.17,-62.15 248.6,-62.15l60.83 0 0 -23.8c0,-37.91 -7.93,-63.69 -23.8,-77.36 -15.87,-13.67 -44.52,-20.5 -85.95,-20.5 -22.04,0 -49.59,3.31 -82.64,9.92 -33.06,6.61 -66.78,15.65 -101.16,27.11l-51.57 -152.07c42.32,-17.63 87.72,-31.07 136.2,-40.33 48.48,-9.26 93.45,-13.88 134.88,-13.88 105.79,0 182.93,20.94 231.41,62.81 48.49,41.87 72.73,106.01 72.73,192.4l0 256.54zm-323.97 75.37c19.39,0 37.24,-5.07 53.55,-15.2 16.31,-10.14 29.75,-24.02 40.33,-41.65l0 -113.73 -39.67 0c-42.32,0 -73.61,7.72 -93.89,23.14 -20.28,15.43 -30.41,38.57 -30.41,69.42 0,23.8 6.18,42.76 18.51,56.86 12.34,14.1 29.53,21.16 51.57,21.16zm1044.65 -75.37c0,25.57 3.31,44.52 9.92,56.86 6.62,12.34 18.29,21.6 35.04,27.77l-47.61 152.07c-44.96,-3.53 -81.76,-12.78 -110.42,-27.77 -28.65,-14.99 -51.79,-38.79 -69.42,-71.41 -44.96,68.76 -115.93,103.14 -212.9,103.14 -69.64,0 -125.4,-20.5 -167.27,-61.49 -41.88,-40.99 -62.82,-94.11 -62.82,-159.34 0,-77.58 28.65,-137.08 85.96,-178.52 57.3,-41.43 140.17,-62.15 248.6,-62.15l60.83 0 0 -23.8c0,-37.91 -7.93,-63.69 -23.8,-77.36 -15.87,-13.67 -44.52,-20.5 -85.95,-20.5 -22.04,0 -49.59,3.31 -82.65,9.92 -33.06,6.61 -66.78,15.65 -101.16,27.11l-51.57 -152.07c42.31,-17.63 87.72,-31.07 136.2,-40.33 48.48,-9.26 93.44,-13.88 134.88,-13.88 105.79,0 182.92,20.94 231.41,62.81 48.49,41.87 72.73,106.01 72.73,192.4l0 256.54zm-323.97 75.37c19.4,0 37.24,-5.07 53.55,-15.2 16.31,-10.14 29.76,-24.02 40.33,-41.65l0 -113.73 -39.67 0c-42.32,0 -73.61,7.72 -93.89,23.14 -20.27,15.43 -30.41,38.57 -30.41,69.42 0,23.8 6.17,42.76 18.51,56.86 12.34,14.1 29.53,21.16 51.57,21.16z"/>
   <path class="fil1" d="M2505.76 461.92c-62.71,-54.34 -146.79,-86.51 -236.6,-86.51 -211.54,0 -358.02,169.4 -365.36,349 -3.85,94.09 26.12,191.82 98.81,266.95l267.14 221.76 266.76 -221.74c69.32,-65.26 175.21,-70.4 248.88,-9.47 83.42,69.01 90.86,196.5 14.88,274.55l-486.42 423.01c-25.81,22.45 -62.35,22.42 -88.2,0l-495.87 -430.12c-126.59,-131.09 -201.73,-309.84 -201.73,-516.73 0,-398.09 330.43,-732.63 741.11,-732.63 189.51,0 364.22,70.99 493.35,189.05 39.04,34.01 64.17,84.74 64.17,141.34 0,168.76 -203.7,248.31 -320.92,131.54zm-54.32 325.4c0,100.37 -81.58,181.95 -181.95,181.95 -100.37,0 -181.95,-81.58 -181.95,-181.95 0,-73.7 87.45,-191.89 133.42,-250.44 24.62,-31.41 72.76,-31.35 96.99,0 45.96,58.55 133.5,176.76 133.5,250.44z"/>
  </g>
 </g>
</svg>
