<?xml version="1.0" encoding="UTF-8"?>
<!DOCTYPE svg PUBLIC "-//W3C//DTD SVG 1.1//EN" "http://www.w3.org/Graphics/SVG/1.1/DTD/svg11.dtd">
<!-- Creator: CorelDRAW 2018 (64-Bit) -->
<svg xmlns="http://www.w3.org/2000/svg" xml:space="preserve" width="105.484mm" height="62.6762mm" version="1.1" style="shape-rendering:geometricPrecision; text-rendering:geometricPrecision; image-rendering:optimizeQuality; fill-rule:evenodd; clip-rule:evenodd"
viewBox="0 0 25867.05 15369.58"
 xmlns:xlink="http://www.w3.org/1999/xlink">
 <defs>
  <style type="text/css">
   <![CDATA[
    .fil1 {fill:#28B097}
    .fil0 {fill:#0B4C9D;fill-rule:nonzero}
   ]]>
  </style>
 </defs>
 <g id="Layer_x0020_1">
  <metadata id="CorelCorpID_0Corel-Layer"/>
  <g id="_2448393514704">
   <path class="fil0" d="M2092.48 10926.97c301.87,0 572.54,44.26 812,132.74 239.41,88.48 458.05,221.21 655.82,398.19l-585.57 812c-239.43,-192.57 -491.89,-288.87 -757.34,-288.87 -255.08,0 -447.65,92.38 -577.79,277.17 -130.11,184.75 -195.17,490.57 -195.17,917.4 0,416.41 65.06,706.58 195.17,870.56 130.14,163.96 317.51,245.93 562.17,245.93 130.11,0 249.83,-20.79 359.15,-62.46 109.32,-41.64 242.03,-111.89 398.22,-210.82l601.16 851.04c-400.79,333.13 -877.06,499.71 -1428.81,499.71 -437.23,0 -815.9,-91.1 -1136.02,-273.28 -320.11,-182.18 -566.07,-438.53 -737.85,-769.07 -171.75,-330.53 -257.63,-711.81 -257.63,-1143.84 0,-437.23 85.88,-826.3 257.63,-1167.26 171.78,-340.93 415.14,-607.71 730.03,-800.28 314.91,-192.57 683.19,-288.9 1104.82,-288.9zm5231.17 3021.6c0,150.96 19.52,262.85 58.56,335.73 39.04,72.88 108.02,127.52 206.92,163.96l-281.1 897.9c-265.45,-20.82 -482.77,-75.48 -651.95,-163.96 -169.15,-88.5 -305.79,-229.04 -409.89,-421.63 -265.48,406.01 -684.49,609.01 -1257.06,609.01 -411.21,0 -740.42,-121.02 -987.68,-363.08 -247.26,-242.03 -370.87,-555.65 -370.87,-940.82 0,-458.05 169.18,-809.4 507.51,-1054.06 338.33,-244.63 827.62,-366.95 1467.85,-366.95l359.15 0 0 -140.54c0,-223.81 -46.84,-376.07 -140.54,-456.75 -93.67,-80.7 -262.85,-121.02 -507.51,-121.02 -130.11,0 -292.8,19.52 -487.97,58.56 -195.2,39.01 -394.29,92.4 -597.29,160.06l-304.52 -897.9c249.86,-104.1 517.93,-183.48 804.21,-238.14 286.27,-54.66 551.75,-81.98 796.38,-81.98 624.63,0 1080.08,123.64 1366.35,370.87 286.27,247.23 429.43,625.93 429.43,1136.02l0 1514.71zm-1912.88 445.03c114.49,0 219.89,-29.92 316.19,-89.78 96.3,-59.86 175.68,-141.84 238.14,-245.93l0 -671.49 -234.21 0c-249.86,0 -434.63,45.56 -554.37,136.64 -119.72,91.1 -179.58,227.74 -179.58,409.91 0,140.54 36.46,252.46 109.32,335.73 72.88,83.28 174.38,124.92 304.52,124.92zm5145.3 -3451.01c135.34,0 275.87,23.44 421.61,70.28l-226.44 1342.93c-135.31,-41.66 -260.25,-62.46 -374.77,-62.46 -234.21,0 -412.49,79.38 -534.8,238.14 -122.34,158.76 -217.32,399.49 -285,722.2l0 1975.36 -1389.77 0 0 -4161.52 1210.2 0 124.94 788.56c83.25,-275.87 222.51,-497.09 417.71,-663.67 195.2,-166.55 407.29,-249.83 636.33,-249.83zm5488.83 -15.62c322.71,0 582.97,110.62 780.79,331.83 197.8,221.21 296.69,527.01 296.69,917.4l0 3052.84 -1389.8 0 0 -2802.99c0,-322.74 -93.67,-484.09 -281.07,-484.09 -192.6,0 -369.57,158.76 -530.93,476.27l0 2810.81 -1389.77 0 0 -2802.99c0,-322.74 -93.7,-484.09 -281.07,-484.09 -192.6,0 -369.57,158.76 -530.93,476.27l0 2810.81 -1389.77 0 0 -4161.52 1210.2 0 101.5 460.65c161.36,-202.99 339.63,-353.95 534.83,-452.85 195.2,-98.92 420.31,-148.36 675.37,-148.36 218.62,0 411.21,53.36 577.77,160.08 166.55,106.7 291.5,261.53 374.77,464.55 171.78,-213.42 356.58,-370.87 554.35,-472.37 197.8,-101.5 426.83,-152.26 687.09,-152.26zm5301.45 3021.6c0,150.96 19.52,262.85 58.56,335.73 39.04,72.88 108.02,127.52 206.92,163.96l-281.1 897.9c-265.45,-20.82 -482.77,-75.48 -651.95,-163.96 -169.15,-88.5 -305.79,-229.04 -409.89,-421.63 -265.48,406.01 -684.49,609.01 -1257.06,609.01 -411.21,0 -740.42,-121.02 -987.66,-363.08 -247.28,-242.03 -370.9,-555.65 -370.9,-940.82 0,-458.05 169.18,-809.4 507.51,-1054.06 338.33,-244.63 827.62,-366.95 1467.85,-366.95l359.15 0 0 -140.54c0,-223.81 -46.84,-376.07 -140.54,-456.75 -93.67,-80.7 -262.85,-121.02 -507.51,-121.02 -130.11,0 -292.8,19.52 -487.97,58.56 -195.2,39.01 -394.29,92.4 -597.29,160.06l-304.52 -897.9c249.86,-104.1 517.93,-183.48 804.21,-238.14 286.27,-54.66 551.75,-81.98 796.38,-81.98 624.63,0 1080.08,123.64 1366.35,370.87 286.3,247.23 429.43,625.93 429.43,1136.02l0 1514.71zm-1912.88 445.03c114.49,0 219.89,-29.92 316.19,-89.78 96.3,-59.86 175.68,-141.84 238.14,-245.93l0 -671.49 -234.21 0c-249.86,0 -434.63,45.56 -554.37,136.64 -119.72,91.1 -179.58,227.74 -179.58,409.91 0,140.54 36.46,252.46 109.32,335.73 72.88,83.28 174.38,124.92 304.52,124.92zm6168.09 -445.03c0,150.96 19.52,262.85 58.56,335.73 39.06,72.88 108.02,127.52 206.92,163.96l-281.1 897.9c-265.45,-20.82 -482.77,-75.48 -651.95,-163.96 -169.15,-88.5 -305.79,-229.04 -409.89,-421.63 -265.48,406.01 -684.49,609.01 -1257.06,609.01 -411.21,0 -740.42,-121.02 -987.66,-363.08 -247.28,-242.03 -370.9,-555.65 -370.9,-940.82 0,-458.05 169.18,-809.4 507.54,-1054.06 338.31,-244.63 827.6,-366.95 1467.83,-366.95l359.15 0 0 -140.54c0,-223.81 -46.84,-376.07 -140.54,-456.75 -93.67,-80.7 -262.85,-121.02 -507.49,-121.02 -130.14,0 -292.8,19.52 -487.99,58.56 -195.2,39.01 -394.29,92.4 -597.29,160.06l-304.49 -897.9c249.83,-104.1 517.91,-183.48 804.21,-238.14 286.25,-54.66 551.72,-81.98 796.38,-81.98 624.6,0 1080.06,123.64 1366.33,370.87 286.3,247.23 429.43,625.93 429.43,1136.02l0 1514.71zm-1912.88 445.03c114.52,0 219.89,-29.92 316.19,-89.78 96.32,-59.86 175.7,-141.84 238.14,-245.93l0 -671.49 -234.21 0c-249.86,0 -434.63,45.56 -554.37,136.64 -119.69,91.1 -179.55,227.74 -179.55,409.91 0,140.54 36.44,252.46 109.32,335.73 72.86,83.28 174.35,124.92 304.49,124.92z"/>
   <path class="fil1" d="M14795.1 2727.41c-370.29,-320.87 -866.74,-510.8 -1397.01,-510.8 -1249.04,0 -2113.94,1000.21 -2157.27,2060.65 -22.71,555.55 154.24,1132.58 583.41,1576.16l1577.34 1309.39 1575.09 -1309.26c409.28,-385.32 1034.54,-415.7 1469.49,-55.91 492.58,407.49 536.5,1160.24 87.84,1621.06l-2872.04 2497.63c-152.41,132.54 -368.15,132.37 -520.75,0l-2927.83 -2539.62c-747.44,-774.02 -1191.12,-1829.41 -1191.12,-3050.98 0,-2350.48 1951.01,-4325.74 4375.84,-4325.74 1118.92,0 2150.52,419.13 2912.94,1116.25 230.48,200.81 378.89,500.33 378.89,834.51 0,996.46 -1202.74,1466.11 -1894.83,776.64zm-320.73 1921.31c0,592.65 -481.69,1074.34 -1074.32,1074.34 -592.65,0 -1074.34,-481.69 -1074.34,-1074.34 0,-435.17 516.34,-1132.97 787.75,-1478.71 145.39,-185.46 429.6,-185.09 572.64,0 271.39,345.69 788.27,1043.64 788.27,1478.71z"/>
  </g>
 </g>
</svg>
