<?xml version="1.0" encoding="UTF-8"?>
<!DOCTYPE svg PUBLIC "-//W3C//DTD SVG 1.1//EN" "http://www.w3.org/Graphics/SVG/1.1/DTD/svg11.dtd">
<!-- Creator: CorelDRAW 2018 (64-Bit) -->
<svg xmlns="http://www.w3.org/2000/svg" xml:space="preserve" width="109.07mm" height="64.807mm" version="1.1" style="shape-rendering:geometricPrecision; text-rendering:geometricPrecision; image-rendering:optimizeQuality; fill-rule:evenodd; clip-rule:evenodd"
viewBox="0 0 4618.67 2744.31"
 xmlns:xlink="http://www.w3.org/1999/xlink">
 <defs>
  <style type="text/css">
   <![CDATA[
    .fil1 {fill:black}
    .fil0 {fill:black;fill-rule:nonzero}
   ]]>
  </style>
 </defs>
 <g id="Layer_x0020_1">
  <metadata id="CorelCorpID_0Corel-Layer"/>
  <g id="_2438301306496">
   <path class="fil0" d="M373.62 1951.06c53.9,0 102.23,7.9 144.98,23.7 42.75,15.8 81.79,39.5 117.1,71.1l-104.56 144.99c-42.75,-34.39 -87.83,-51.58 -135.23,-51.58 -45.54,0 -79.93,16.49 -103.17,49.49 -23.24,32.99 -34.85,87.6 -34.85,163.81 0,74.36 11.62,126.17 34.85,155.44 23.24,29.28 56.7,43.91 100.38,43.91 23.24,0 44.61,-3.71 64.13,-11.15 19.52,-7.44 43.22,-19.98 71.1,-37.65l107.34 151.96c-71.56,59.48 -156.6,89.23 -255.12,89.23 -78.07,0 -145.68,-16.27 -202.84,-48.8 -57.16,-32.53 -101.08,-78.3 -131.75,-137.32 -30.67,-59.02 -46,-127.1 -46,-204.24 0,-78.07 15.33,-147.54 46,-208.42 30.67,-60.88 74.13,-108.51 130.35,-142.9 56.23,-34.38 121.99,-51.58 197.27,-51.58zm934.05 539.52c0,26.96 3.49,46.94 10.46,59.95 6.97,13.01 19.28,22.77 36.95,29.28l-50.19 160.32c-47.4,-3.72 -86.2,-13.48 -116.41,-29.28 -30.2,-15.8 -54.6,-40.89 -73.19,-75.28 -47.4,72.49 -122.22,108.74 -224.45,108.74 -73.42,0 -132.2,-21.61 -176.35,-64.83 -44.15,-43.22 -66.22,-99.22 -66.22,-167.99 0,-81.79 30.21,-144.52 90.62,-188.21 60.41,-43.68 147.77,-65.52 262.09,-65.52l64.13 0 0 -25.09c0,-39.96 -8.36,-67.15 -25.09,-81.55 -16.73,-14.41 -46.94,-21.61 -90.62,-21.61 -23.24,0 -52.28,3.49 -87.13,10.46 -34.85,6.97 -70.4,16.5 -106.65,28.58l-54.37 -160.32c44.61,-18.59 92.47,-32.76 143.59,-42.52 51.11,-9.76 98.51,-14.64 142.2,-14.64 111.53,0 192.85,22.07 243.96,66.22 51.12,44.15 76.68,111.76 76.68,202.84l0 270.45zm-341.55 79.47c20.44,0 39.26,-5.34 56.46,-16.03 17.19,-10.69 31.37,-25.33 42.52,-43.91l0 -119.89 -41.82 0c-44.61,0 -77.6,8.13 -98.98,24.4 -21.37,16.27 -32.06,40.66 -32.06,73.19 0,25.09 6.51,45.08 19.52,59.94 13.01,14.87 31.14,22.31 54.37,22.31zm918.71 -616.2c24.16,0 49.26,4.18 75.28,12.55l-40.43 239.78c-24.16,-7.44 -46.47,-11.15 -66.91,-11.15 -41.82,0 -73.66,14.17 -95.49,42.52 -21.85,28.35 -38.81,71.33 -50.89,128.95l0 352.71 -248.15 0 0 -743.05 216.09 0 22.31 140.8c14.87,-49.26 39.73,-88.76 74.58,-118.5 34.85,-29.74 72.73,-44.61 113.62,-44.61zm980.06 -2.79c57.62,0 104.09,19.75 139.41,59.25 35.32,39.5 52.98,94.11 52.98,163.81l0 545.09 -248.15 0 0 -500.48c0,-57.62 -16.73,-86.44 -50.18,-86.44 -34.39,0 -65.99,28.35 -94.8,85.04l0 501.87 -248.15 0 0 -500.48c0,-57.62 -16.73,-86.44 -50.19,-86.44 -34.38,0 -65.98,28.35 -94.8,85.04l0 501.87 -248.15 0 0 -743.05 216.09 0 18.12 82.25c28.81,-36.24 60.64,-63.2 95.5,-80.86 34.85,-17.66 75.05,-26.49 120.59,-26.49 39.03,0 73.42,9.53 103.16,28.58 29.74,19.05 52.05,46.7 66.92,82.95 30.67,-38.11 63.66,-66.22 98.98,-84.34 35.32,-18.12 76.21,-27.19 122.68,-27.19zm946.59 539.52c0,26.96 3.49,46.94 10.46,59.95 6.97,13.01 19.28,22.77 36.95,29.28l-50.19 160.32c-47.4,-3.72 -86.2,-13.48 -116.41,-29.28 -30.2,-15.8 -54.6,-40.89 -73.19,-75.28 -47.4,72.49 -122.22,108.74 -224.45,108.74 -73.42,0 -132.2,-21.61 -176.35,-64.83 -44.15,-43.22 -66.22,-99.22 -66.22,-167.99 0,-81.79 30.21,-144.52 90.62,-188.21 60.41,-43.68 147.77,-65.52 262.09,-65.52l64.13 0 0 -25.09c0,-39.96 -8.36,-67.15 -25.09,-81.55 -16.73,-14.41 -46.94,-21.61 -90.62,-21.61 -23.24,0 -52.28,3.49 -87.13,10.46 -34.85,6.97 -70.4,16.5 -106.65,28.58l-54.37 -160.32c44.61,-18.59 92.47,-32.76 143.59,-42.52 51.11,-9.76 98.51,-14.64 142.2,-14.64 111.53,0 192.85,22.07 243.96,66.22 51.12,44.15 76.68,111.76 76.68,202.84l0 270.45zm-341.55 79.47c20.44,0 39.26,-5.34 56.46,-16.03 17.19,-10.69 31.37,-25.33 42.52,-43.91l0 -119.89 -41.82 0c-44.61,0 -77.6,8.13 -98.98,24.4 -21.37,16.27 -32.06,40.66 -32.06,73.19 0,25.09 6.51,45.08 19.52,59.94 13.01,14.87 31.14,22.31 54.37,22.31zm1101.34 -79.47c0,26.96 3.49,46.94 10.46,59.95 6.97,13.01 19.28,22.77 36.94,29.28l-50.19 160.32c-47.4,-3.72 -86.2,-13.48 -116.41,-29.28 -30.21,-15.8 -54.6,-40.89 -73.19,-75.28 -47.4,72.49 -122.22,108.74 -224.45,108.74 -73.42,0 -132.2,-21.61 -176.35,-64.83 -44.15,-43.22 -66.22,-99.22 -66.22,-167.99 0,-81.79 30.21,-144.52 90.62,-188.21 60.41,-43.68 147.77,-65.52 262.09,-65.52l64.13 0 0 -25.09c0,-39.96 -8.36,-67.15 -25.09,-81.55 -16.73,-14.41 -46.94,-21.61 -90.62,-21.61 -23.24,0 -52.28,3.49 -87.13,10.46 -34.85,6.97 -70.4,16.5 -106.65,28.58l-54.37 -160.32c44.61,-18.59 92.47,-32.76 143.59,-42.52 51.12,-9.76 98.52,-14.64 142.2,-14.64 111.53,0 192.85,22.07 243.97,66.22 51.12,44.15 76.68,111.76 76.68,202.84l0 270.45zm-341.55 79.47c20.45,0 39.26,-5.34 56.46,-16.03 17.2,-10.69 31.37,-25.33 42.52,-43.91l0 -119.89 -41.82 0c-44.61,0 -77.61,8.13 -98.98,24.4 -21.38,16.27 -32.06,40.66 -32.06,73.19 0,25.09 6.51,45.08 19.52,59.94 13.01,14.87 31.14,22.31 54.37,22.31z"/>
   <path class="fil1" d="M2641.73 486.99c-66.12,-57.3 -154.76,-91.21 -249.44,-91.21 -223.02,0 -377.45,178.59 -385.19,367.94 -4.05,99.2 27.54,202.23 104.17,281.43l281.64 233.8 281.24 -233.77c73.08,-68.8 184.73,-74.23 262.38,-9.99 87.96,72.76 95.8,207.17 15.69,289.45l-512.82 445.96c-27.22,23.67 -65.74,23.64 -92.98,0l-522.78 -453.46c-133.46,-138.2 -212.68,-326.65 -212.68,-544.77 0,-419.69 348.36,-772.38 781.32,-772.38 199.79,0 383.99,74.84 520.12,199.31 41.16,35.85 67.66,89.34 67.66,149.01 0,177.92 -214.76,261.78 -338.33,138.67zm-57.27 343.06c0,105.82 -86.01,191.83 -191.83,191.83 -105.82,0 -191.83,-86.01 -191.83,-191.83 0,-77.7 92.2,-202.3 140.66,-264.03 25.96,-33.11 76.71,-33.05 102.25,0 48.46,61.72 140.75,186.34 140.75,264.03z"/>
  </g>
 </g>
</svg>
