<?xml version="1.0" encoding="UTF-8"?>
<!DOCTYPE svg PUBLIC "-//W3C//DTD SVG 1.1//EN" "http://www.w3.org/Graphics/SVG/1.1/DTD/svg11.dtd">
<!-- Creator: CorelDRAW 2018 (64-Bit) -->
<svg xmlns="http://www.w3.org/2000/svg" xml:space="preserve" width="169.346mm" height="32.9355mm" version="1.1" style="shape-rendering:geometricPrecision; text-rendering:geometricPrecision; image-rendering:optimizeQuality; fill-rule:evenodd; clip-rule:evenodd"
viewBox="0 0 16934.56 3293.55"
 xmlns:xlink="http://www.w3.org/1999/xlink">
 <defs>
  <style type="text/css">
   <![CDATA[
    .fil1 {fill:black}
    .fil0 {fill:black;fill-rule:nonzero}
   ]]>
  </style>
 </defs>
 <g id="Layer_x0020_1">
  <metadata id="CorelCorpID_0Corel-Layer"/>
  <g id="_2438301277760">
   <path class="fil0" d="M4541.54 488.87c157.37,0 298.46,23.07 423.27,69.19 124.82,46.13 238.78,115.32 341.88,207.57l-305.25 423.28c-124.81,-100.4 -256.4,-150.59 -394.78,-150.59 -132.95,0 -233.35,48.16 -301.18,144.48 -67.83,96.32 -101.75,255.73 -101.75,478.22 0,217.07 33.92,368.33 101.75,453.8 67.83,85.47 165.51,128.2 293.04,128.2 67.83,0 130.24,-10.85 187.22,-32.55 56.98,-21.71 126.16,-58.34 207.56,-109.89l313.39 443.62c-208.92,173.65 -457.19,260.48 -744.8,260.48 -227.92,0 -425.31,-47.48 -592.18,-142.45 -166.87,-94.97 -295.07,-228.6 -384.61,-400.89 -89.54,-172.3 -134.31,-371.05 -134.31,-596.25 0,-227.92 44.77,-430.74 134.31,-608.46 89.54,-177.72 216.38,-316.78 380.54,-417.17 164.15,-100.39 356.12,-150.59 575.9,-150.59zm2726.87 1575.08c0,78.68 10.18,137.02 30.52,175 20.35,37.99 56.31,66.48 107.86,85.47l-146.52 468.05c-138.38,-10.85 -251.66,-39.34 -339.84,-85.47 -88.18,-46.13 -159.41,-119.39 -213.67,-219.78 -138.38,211.64 -356.8,317.46 -655.27,317.46 -214.35,0 -385.97,-63.09 -514.85,-189.25 -128.88,-126.17 -193.32,-289.65 -193.32,-490.43 0,-238.78 88.18,-421.92 264.55,-549.45 176.36,-127.52 431.41,-191.29 765.15,-191.29l187.22 0 0 -73.26c0,-116.67 -24.42,-196.03 -73.26,-238.09 -48.84,-42.05 -137.02,-63.08 -264.55,-63.08 -67.83,0 -152.62,10.17 -254.37,30.52 -101.75,20.35 -205.53,48.16 -311.35,83.44l-158.73 -468.05c130.24,-54.27 269.97,-95.64 419.2,-124.13 149.24,-28.49 287.61,-42.74 415.14,-42.74 325.6,0 563.01,64.44 712.24,193.33 149.23,128.88 223.85,326.27 223.85,592.17l0 789.58zm-997.14 231.98c59.69,0 114.64,-15.6 164.83,-46.8 50.2,-31.2 91.58,-73.94 124.14,-128.2l0 -350.02 -122.1 0c-130.24,0 -226.56,23.74 -288.97,71.22 -62.4,47.49 -93.61,118.71 -93.61,213.68 0,73.26 19,131.59 56.98,175 37.99,43.42 90.9,65.12 158.73,65.12zm2682.11 -1798.92c70.54,0 143.8,12.21 219.77,36.63l-118.03 700.03c-70.54,-21.7 -135.66,-32.55 -195.35,-32.55 -122.1,0 -215.03,41.37 -278.8,124.13 -63.76,82.75 -113.28,208.25 -148.55,376.47l0 1029.7 -724.45 0 0 -2169.29 630.84 0 65.12 411.07c43.41,-143.81 115.99,-259.12 217.74,-345.95 101.75,-86.83 212.32,-130.24 331.71,-130.24zm2861.17 -8.14c168.23,0 303.89,57.66 407,172.98 103.11,115.31 154.66,274.72 154.66,478.22l0 1591.35 -724.45 0 0 -1461.12c0,-168.22 -48.84,-252.33 -146.52,-252.33 -100.4,0 -192.65,82.75 -276.76,248.26l0 1465.19 -724.45 0 0 -1461.12c0,-168.22 -48.84,-252.33 -146.52,-252.33 -100.39,0 -192.65,82.75 -276.76,248.26l0 1465.19 -724.45 0 0 -2169.29 630.84 0 52.91 240.13c84.11,-105.82 177.04,-184.51 278.79,-236.06 101.75,-51.55 219.1,-77.33 352.06,-77.33 113.95,0 214.35,27.81 301.17,83.44 86.83,55.62 151.95,136.34 195.36,242.16 89.54,-111.25 185.86,-193.32 288.97,-246.23 103.1,-52.91 222.49,-79.37 358.15,-79.37zm2763.51 1575.08c0,78.68 10.18,137.02 30.52,175 20.35,37.99 56.31,66.48 107.86,85.47l-146.52 468.05c-138.38,-10.85 -251.66,-39.34 -339.84,-85.47 -88.18,-46.13 -159.41,-119.39 -213.67,-219.78 -138.38,211.64 -356.8,317.46 -655.27,317.46 -214.35,0 -385.97,-63.09 -514.85,-189.25 -128.88,-126.17 -193.32,-289.65 -193.32,-490.43 0,-238.78 88.18,-421.92 264.55,-549.45 176.36,-127.52 431.41,-191.29 765.15,-191.29l187.22 0 0 -73.26c0,-116.67 -24.42,-196.03 -73.26,-238.09 -48.84,-42.05 -137.02,-63.08 -264.55,-63.08 -67.83,0 -152.62,10.17 -254.37,30.52 -101.75,20.35 -205.53,48.16 -311.35,83.44l-158.73 -468.05c130.24,-54.27 269.97,-95.64 419.2,-124.13 149.24,-28.49 287.61,-42.74 415.14,-42.74 325.6,0 563.01,64.44 712.24,193.33 149.23,128.88 223.85,326.27 223.85,592.17l0 789.58zm-997.14 231.98c59.69,0 114.64,-15.6 164.83,-46.8 50.2,-31.2 91.58,-73.94 124.14,-128.2l0 -350.02 -122.1 0c-130.24,0 -226.56,23.74 -288.97,71.22 -62.4,47.49 -93.61,118.71 -93.61,213.68 0,73.26 19,131.59 56.98,175 37.99,43.42 90.9,65.12 158.73,65.12zm3215.27 -231.98c0,78.68 10.18,137.02 30.52,175 20.35,37.99 56.31,66.48 107.86,85.47l-146.52 468.05c-138.38,-10.85 -251.66,-39.34 -339.84,-85.47 -88.18,-46.13 -159.41,-119.39 -213.67,-219.78 -138.38,211.64 -356.8,317.46 -655.27,317.46 -214.35,0 -385.97,-63.09 -514.85,-189.25 -128.88,-126.17 -193.32,-289.65 -193.32,-490.43 0,-238.78 88.18,-421.92 264.55,-549.45 176.36,-127.52 431.41,-191.29 765.15,-191.29l187.22 0 0 -73.26c0,-116.67 -24.42,-196.03 -73.26,-238.09 -48.84,-42.05 -137.02,-63.08 -264.55,-63.08 -67.83,0 -152.62,10.17 -254.37,30.52 -101.75,20.35 -205.53,48.16 -311.35,83.44l-158.73 -468.05c130.24,-54.27 269.97,-95.64 419.2,-124.13 149.24,-28.49 287.61,-42.74 415.14,-42.74 325.6,0 563.01,64.44 712.24,193.33 149.23,128.88 223.85,326.27 223.85,592.17l0 789.58zm-997.14 231.98c59.69,0 114.64,-15.6 164.83,-46.8 50.2,-31.2 91.58,-73.94 124.14,-128.2l0 -350.02 -122.1 0c-130.24,0 -226.56,23.74 -288.97,71.22 -62.4,47.49 -93.61,118.71 -93.61,213.68 0,73.26 19,131.59 56.98,175 37.99,43.42 90.9,65.12 158.73,65.12z"/>
   <path class="fil1" d="M1898.33 896.88c-121.77,-105.52 -285.02,-167.97 -459.39,-167.97 -410.73,0 -695.15,328.91 -709.4,677.62 -7.46,182.68 50.73,372.43 191.85,518.3l518.7 430.58 517.94 -430.53c134.59,-126.71 340.2,-136.7 483.23,-18.39 161.98,133.99 176.42,381.53 28.89,533.07l-944.44 821.31c-50.12,43.59 -121.07,43.53 -171.25,0l-962.78 -835.12c-245.78,-254.52 -391.68,-601.58 -391.68,-1003.28 0,-772.93 641.56,-1422.47 1438.94,-1422.47 367.95,0 707.18,137.83 957.89,367.07 75.79,66.03 124.59,164.53 124.59,274.42 0,327.67 -395.51,482.11 -623.09,255.39zm-105.47 631.8c0,194.89 -158.4,353.28 -353.28,353.28 -194.88,0 -353.28,-158.39 -353.28,-353.28 0,-143.1 169.79,-372.57 259.04,-486.26 47.81,-60.98 141.28,-60.86 188.31,0 89.24,113.68 259.21,343.19 259.21,486.26z"/>
  </g>
 </g>
</svg>
