<?xml version="1.0" encoding="UTF-8"?>
<!DOCTYPE svg PUBLIC "-//W3C//DTD SVG 1.1//EN" "http://www.w3.org/Graphics/SVG/1.1/DTD/svg11.dtd">
<!-- Creator: CorelDRAW 2018 (64-Bit) -->
<svg xmlns="http://www.w3.org/2000/svg" xml:space="preserve" width="109.07mm" height="64.807mm" version="1.1" style="shape-rendering:geometricPrecision; text-rendering:geometricPrecision; image-rendering:optimizeQuality; fill-rule:evenodd; clip-rule:evenodd"
viewBox="0 0 30170.86 17926.83"
 xmlns:xlink="http://www.w3.org/1999/xlink">
 <defs>
  <style type="text/css">
   <![CDATA[
    .fil1 {fill:white}
    .fil0 {fill:white;fill-rule:nonzero}
   ]]>
  </style>
 </defs>
 <g id="Layer_x0020_1">
  <metadata id="CorelCorpID_0Corel-Layer"/>
  <g id="_2438301274400">
   <path class="fil0" d="M2440.63 12745.04c352.11,0 667.81,51.62 947.09,154.82 279.27,103.21 534.29,258 764.96,464.44l-683 947.11c-279.27,-224.64 -573.71,-336.95 -883.35,-336.95 -297.5,0 -522.15,107.74 -673.93,323.28 -151.78,215.51 -227.66,572.21 -227.66,1070.04 0,485.71 75.88,824.16 227.66,1015.41 151.78,191.25 370.36,286.85 655.7,286.85 151.78,0 291.42,-24.26 418.91,-72.83 127.52,-48.57 282.32,-130.54 464.47,-245.91l701.2 992.65c-467.49,388.57 -1022.99,582.86 -1666.54,582.86 -509.97,0 -951.65,-106.28 -1325.03,-318.75 -373.38,-212.5 -660.26,-511.5 -860.62,-897.02 -200.33,-385.52 -300.49,-830.24 -300.49,-1334.16 0,-509.97 100.16,-963.79 300.49,-1361.46 200.35,-397.67 484.22,-708.81 851.49,-933.45 367.32,-224.61 796.86,-336.95 1288.66,-336.95zm6101.54 3524.32c0,176.1 22.77,306.6 68.3,391.61 45.56,85 125.97,148.74 241.35,191.25l-327.88 1047.28c-309.62,-24.29 -563.09,-88.05 -760.42,-191.25 -197.28,-103.21 -356.67,-267.13 -478.08,-491.75 -309.65,473.54 -798.38,710.33 -1466.22,710.33 -479.6,0 -863.6,-141.16 -1151.98,-423.48 -288.4,-282.32 -432.6,-648.12 -432.6,-1097.37 0,-534.26 197.31,-944.07 591.96,-1229.43 394.62,-285.36 965.32,-428.01 1712.08,-428.01l418.91 0 0 -163.92c0,-261.05 -54.63,-438.63 -163.92,-532.74 -109.29,-94.11 -306.6,-141.16 -591.94,-141.16 -151.78,0 -341.51,22.77 -569.17,68.3 -227.68,45.53 -459.91,107.77 -696.69,186.69l-355.15 -1047.28c291.42,-121.44 604.08,-214.02 938.01,-277.75 333.88,-63.76 643.53,-95.63 928.89,-95.63 728.53,0 1259.78,144.2 1593.66,432.58 333.93,288.37 500.9,730.05 500.9,1325.03l0 1766.71zm-2231.15 519.1c133.55,0 256.48,-34.91 368.82,-104.73 112.31,-69.82 204.89,-165.45 277.75,-286.85l0 -783.19 -273.22 0c-291.39,0 -506.93,53.11 -646.6,159.36 -139.61,106.25 -209.43,265.64 -209.43,478.11 0,163.92 42.52,294.46 127.49,391.58 85,97.15 203.4,145.72 355.18,145.72zm6001.38 -4025.22c157.84,0 321.76,27.33 491.77,81.99l-264.12 1566.35c-157.84,-48.57 -303.56,-72.83 -437.11,-72.83 -273.22,0 -481.15,92.58 -623.8,277.75 -142.71,185.17 -253.49,465.96 -332.44,842.36l0 2304.01 -1620.99 0 0 -4853.91 1411.56 0 145.72 919.78c97.12,-321.79 259.52,-579.79 487.18,-774.09 227.68,-194.27 475.09,-291.42 742.22,-291.42zm6402.09 -18.2c376.4,0 679.96,129.01 910.66,387.02 230.73,258.06 346.08,614.73 346.08,1070.07l0 3560.75 -1621.04 0 0 -3269.33c0,-376.42 -109.26,-564.63 -327.82,-564.63 -224.64,0 -431.05,185.17 -619.27,555.53l0 3278.43 -1621.01 0 0 -3269.33c0,-376.42 -109.29,-564.63 -327.85,-564.63 -224.61,0 -431.03,185.17 -619.27,555.53l0 3278.43 -1621.01 0 0 -4853.91 1411.56 0 118.39 537.3c188.21,-236.76 396.15,-412.85 623.83,-528.2 227.66,-115.35 490.22,-173.02 787.73,-173.02 254.99,0 479.63,62.24 673.9,186.69 194.27,124.45 339.99,305.08 437.14,541.84 200.35,-248.93 415.87,-432.55 646.57,-550.94 230.7,-118.39 497.86,-177.59 801.42,-177.59zm6183.51 3524.32c0,176.1 22.77,306.6 68.3,391.61 45.56,85 125.97,148.74 241.35,191.25l-327.88 1047.28c-309.62,-24.29 -563.09,-88.05 -760.42,-191.25 -197.28,-103.21 -356.64,-267.13 -478.08,-491.75 -309.65,473.54 -798.38,710.33 -1466.22,710.33 -479.6,0 -863.6,-141.16 -1151.98,-423.48 -288.4,-282.32 -432.6,-648.12 -432.6,-1097.37 0,-534.26 197.34,-944.07 591.96,-1229.43 394.62,-285.36 965.32,-428.01 1712.08,-428.01l418.91 0 0 -163.92c0,-261.05 -54.63,-438.63 -163.92,-532.74 -109.29,-94.11 -306.6,-141.16 -591.94,-141.16 -151.78,0 -341.51,22.77 -569.17,68.3 -227.68,45.53 -459.91,107.77 -696.69,186.69l-355.15 -1047.28c291.42,-121.44 604.08,-214.02 938.01,-277.75 333.88,-63.76 643.53,-95.63 928.89,-95.63 728.53,0 1259.78,144.2 1593.66,432.58 333.93,288.37 500.9,730.05 500.9,1325.03l0 1766.71zm-2231.15 519.1c133.55,0 256.48,-34.91 368.82,-104.73 112.31,-69.82 204.89,-165.45 277.75,-286.85l0 -783.19 -273.22 0c-291.39,0 -506.93,53.11 -646.6,159.36 -139.61,106.25 -209.43,265.64 -209.43,478.11 0,163.92 42.52,294.46 127.49,391.58 85,97.15 203.4,145.72 355.18,145.72zm7194.35 -519.1c0,176.1 22.77,306.6 68.32,391.61 45.53,85 125.97,148.74 241.32,191.25l-327.85 1047.28c-309.62,-24.29 -563.11,-88.05 -760.42,-191.25 -197.31,-103.21 -356.67,-267.13 -478.11,-491.75 -309.65,473.54 -798.38,710.33 -1466.22,710.33 -479.6,0 -863.6,-141.16 -1151.98,-423.48 -288.4,-282.32 -432.6,-648.12 -432.6,-1097.37 0,-534.26 197.34,-944.07 591.96,-1229.43 394.62,-285.36 965.32,-428.01 1712.08,-428.01l418.91 0 0 -163.92c0,-261.05 -54.63,-438.63 -163.92,-532.74 -109.26,-94.11 -306.6,-141.16 -591.94,-141.16 -151.78,0 -341.51,22.77 -569.17,68.3 -227.68,45.53 -459.91,107.77 -696.66,186.69l-355.18 -1047.28c291.42,-121.44 604.08,-214.02 938.01,-277.75 333.91,-63.76 643.55,-95.63 928.89,-95.63 728.53,0 1259.78,144.2 1593.68,432.58 333.91,288.37 500.87,730.05 500.87,1325.03l0 1766.71zm-2231.15 519.1c133.58,0 256.48,-34.91 368.82,-104.73 112.33,-69.82 204.92,-165.45 277.75,-286.85l0 -783.19 -273.19 0c-291.42,0 -506.96,53.11 -646.6,159.36 -139.64,106.25 -209.46,265.64 -209.46,478.11 0,163.92 42.52,294.46 127.49,391.58 85,97.15 203.4,145.72 355.18,145.72z"/>
   <path class="fil1" d="M17256.75 3181.23c-431.91,-374.29 -1010.96,-595.81 -1629.45,-595.81 -1456.84,0 -2465.67,1166.64 -2516.21,2403.51 -26.47,647.98 179.91,1321.02 680.48,1838.41l1839.79 1527.24 1837.14 -1527.07c477.39,-449.42 1206.69,-484.88 1713.98,-65.23 574.56,475.29 625.79,1353.3 102.49,1890.8l-3349.91 2913.15c-177.78,154.6 -429.42,154.41 -607.4,0l-3414.97 -2962.14c-871.79,-902.8 -1389.29,-2133.81 -1389.29,-3558.62 0,-2741.57 2275.6,-5045.47 5103.89,-5045.47 1305.11,0 2508.35,488.87 3397.6,1301.99 268.85,234.21 441.95,583.58 441.95,973.37 0,1162.24 -1402.87,1710.03 -2210.1,905.87zm-374.1 2240.97c0,691.24 -561.84,1253.08 -1253.08,1253.08 -691.24,0 -1253.08,-561.84 -1253.08,-1253.08 0,-507.57 602.25,-1321.49 918.82,-1724.75 169.59,-216.32 501.09,-215.9 667.92,0 316.53,403.2 919.43,1217.26 919.43,1724.75z"/>
  </g>
 </g>
</svg>
