<?xml version="1.0" encoding="UTF-8"?>
<!DOCTYPE svg PUBLIC "-//W3C//DTD SVG 1.1//EN" "http://www.w3.org/Graphics/SVG/1.1/DTD/svg11.dtd">
<!-- Creator: CorelDRAW 2018 (64-Bit) -->
<svg xmlns="http://www.w3.org/2000/svg" xml:space="preserve" width="88.1275mm" height="112.836mm" version="1.1" style="shape-rendering:geometricPrecision; text-rendering:geometricPrecision; image-rendering:optimizeQuality; fill-rule:evenodd; clip-rule:evenodd"
viewBox="0 0 7568.1 9689.95"
 xmlns:xlink="http://www.w3.org/1999/xlink">
 <defs>
  <style type="text/css">
   <![CDATA[
    .fil0 {fill:#28B097}
   ]]>
  </style>
 </defs>
 <g id="Layer_x0020_1">
  <metadata id="CorelCorpID_0Corel-Layer"/>
  <path class="fil0" d="M5585.09 2638.72c-358.25,-310.45 -838.56,-494.19 -1351.57,-494.19 -1208.41,0 -2045.2,967.69 -2087.12,1993.64 -21.97,537.47 149.23,1095.73 564.44,1524.89l1526.05 1266.8 1523.85 -1266.67c395.98,-372.78 1000.91,-402.19 1421.71,-54.09 476.56,394.23 519.06,1122.51 84.99,1568.35l-2778.63 2416.39c-147.46,128.23 -356.19,128.07 -503.82,0l-2832.62 -2457.02c-723.12,-748.84 -1152.36,-1769.92 -1152.36,-2951.75 0,-2274.04 1887.54,-4185.06 4233.52,-4185.06 1082.54,0 2080.59,405.51 2818.2,1079.95 222.99,194.28 366.58,484.07 366.58,807.39 0,964.03 -1163.64,1418.41 -1833.21,751.39z"/>
  <path class="fil0" d="M5274.79 4497.54c0,573.37 -466.03,1039.39 -1039.39,1039.39 -573.37,0 -1039.39,-466.02 -1039.39,-1039.39 0,-421.01 499.54,-1096.14 762.12,-1430.62 140.67,-179.42 415.65,-179.08 554.03,0 262.55,334.45 762.63,1009.69 762.63,1430.62z"/>
 </g>
</svg>
